<svg width="1600" height="900" viewBox="0 0 1600 900" fill="none" xmlns="http://www.w3.org/2000/svg">
  <defs>
    <linearGradient id="heroGradient" x1="0" y1="0" x2="1" y2="1">
      <stop offset="0%" stop-color="#1b1a18" />
      <stop offset="55%" stop-color="#5c4a2e" />
      <stop offset="100%" stop-color="#d7c2a0" />
    </linearGradient>
    <radialGradient id="heroGlow" cx="0.2" cy="0.1" r="0.7">
      <stop offset="0%" stop-color="#f4e9d7" stop-opacity="0.6" />
      <stop offset="100%" stop-color="#1b1a18" stop-opacity="0" />
    </radialGradient>
  </defs>
  <rect width="1600" height="900" fill="url(#heroGradient)" />
  <rect width="1600" height="900" fill="url(#heroGlow)" />
  <g opacity="0.5">
    <path d="M0 720C240 640 420 610 720 660C960 700 1120 780 1600 820V900H0V720Z" fill="#0f0e0c" />
    <path d="M0 520C180 480 360 460 660 500C940 540 1200 640 1600 700V820C1120 770 860 710 620 680C320 640 160 660 0 720V520Z" fill="#2f2a23" />
  </g>
  <circle cx="1280" cy="220" r="140" fill="#f3e7d5" fill-opacity="0.12" />
  <circle cx="1220" cy="280" r="220" stroke="#f3e7d5" stroke-opacity="0.2" stroke-width="2" />
</svg>
